# xmcd
#
# Track frame offsets: 
#        150
#        14945
#        27997
#        38360
#        49897
#        65290
#        80135
#        92472
#        106757
#        120847
#        133230
#        146085
#        158752
#        171575
#        184357
#        196260
#        207760
#        219617
#        237075
#        250747
#        264067
#        276345
#        289530
#        301892
#        316552
#
# Disc length: 4431 seconds
#
# Revision: 3
# Processed by: cddbd v1.5.2PL0 Copyright (c) Steve Scherf et al.
# Submitted via: ExactAudioCopy v0.99pb5
#
DISCID=5d114d19
DTITLE=Various Artist - Mega Fête CD2
DYEAR=1996
DGENRE=Pop
TTITLE0=Les Musclés - La Fête Au Village
TTITLE1=Bézu - Agadou
TTITLE2=Michel Pruvot - Ah! Le Petit Vin Blanc
TTITLE3=''Momo'' Larcange and Son Orchestre - La Java Bleue
TTITLE4=Les Débranchés - Le Travail C'Est La Santé
TTITLE5=La Compagnie Créole - Comme Un Arc En Ciel
TTITLE6=Saar Boubacar - La Biguine A Bouba
TTITLE7=Juanito - Djobi Djoba
TTITLE8=El Chato - Loco Loco
TTITLE9=Eric Morena - La Fiesta Morena
TTITLE10=Clémence Bringtown - Les Rois Mages
TTITLE11=Jordy - Sacré Charlemagne 
TTITLE12=Les Forbans - Tape Des Mains
TTITLE13=Ferrer - La Bamba 
TTITLE14=Pancho Cantaneo Y Los Cubaztecas - Moliendo Cafe
TTITLE15=Les Charlots - A La Martinique
TTITLE16=Les Papayes - Célimène
TTITLE17=Nilda Dimeo - Copacabana
TTITLE18=Les Fêtards - Darla Dirladada
TTITLE19=Mystic - Ritmo De La Noche
TTITLE20=Mc Miker ''G'' and DJ Sven - Holiday Rap
TTITLE21=Kassis - Mon Carénage
TTITLE22=Sabrina - Boys, Boys, Boys
TTITLE23=Richard Gotainer - Le Youki
TTITLE24=Michel Fugain - Viva La Vida (Live)
EXTD=
EXTT0=
EXTT1=
EXTT2=
EXTT3=
EXTT4=
EXTT5=
EXTT6=
EXTT7=
EXTT8=
EXTT9=
EXTT10=
EXTT11=
EXTT12=
EXTT13=
EXTT14=
EXTT15=
EXTT16=
EXTT17=
EXTT18=
EXTT19=
EXTT20=
EXTT21=
EXTT22=
EXTT23=
EXTT24=
PLAYORDER=
